HIERARCHY
ROOT Hips
{
	OFFSET -0.001795 -0.223333 0.028219
	CHANNELS 6 Xposition Yposition Zposition Zrotation Yrotation Xrotation 
	JOINT LeftUpLeg
	{
		OFFSET 0.069520 -0.091406 -0.006815
		CHANNELS 3 Zrotation Yrotation Xrotation
		JOINT LeftLeg
		{
			OFFSET 0.034277 -0.375199 -0.004496
			CHANNELS 3 Zrotation Yrotation Xrotation
			JOINT LeftFoot
			{
				OFFSET -0.013596 -0.397961 -0.043693
				CHANNELS 3 Zrotation Yrotation Xrotation
				JOINT LeftToe
				{
					OFFSET 0.026358 -0.055791 0.119288
					CHANNELS 3 Zrotation Yrotation Xrotation
					End Site
					{
						OFFSET 0.000000 0.000000 0.000000
					}
				}
			}
		}
	}
	JOINT RightUpLeg
	{
		OFFSET -0.067670 -0.090522 -0.004320
		CHANNELS 3 Zrotation Yrotation Xrotation
		JOINT RightLeg
		{
			OFFSET -0.038290 -0.382569 -0.008850
			CHANNELS 3 Zrotation Yrotation Xrotation
			JOINT RightFoot
			{
				OFFSET 0.015774 -0.398415 -0.042312
				CHANNELS 3 Zrotation Yrotation Xrotation
				JOINT RightToe
				{
					OFFSET -0.025372 -0.048144 0.123348
					CHANNELS 3 Zrotation Yrotation Xrotation
					End Site
					{
						OFFSET 0.000000 0.000000 0.000000
					}
				}
			}
		}
	}
	JOINT Spine
	{
		OFFSET -0.002533 0.108963 -0.026696
		CHANNELS 3 Zrotation Yrotation Xrotation
		JOINT Spine1
		{
			OFFSET 0.005487 0.135180 0.001092
			CHANNELS 3 Zrotation Yrotation Xrotation
			JOINT Spine2
			{
				OFFSET 0.001457 0.052922 0.025425
				CHANNELS 3 Zrotation Yrotation Xrotation
				JOINT Neck
				{
					OFFSET -0.002778 0.213870 -0.042857
					CHANNELS 3 Zrotation Yrotation Xrotation
					JOINT Head
					{
						OFFSET 0.005152 0.064970 0.051349
						CHANNELS 3 Zrotation Yrotation Xrotation
						End Site
						{
							OFFSET 0.000000 0.000000 0.000000
						}
					}
				}
				JOINT LeftShoulder
				{
					OFFSET 0.078845 0.121749 -0.034090
					CHANNELS 3 Zrotation Yrotation Xrotation
					JOINT LeftArm
					{
						OFFSET 0.090977 0.030469 -0.008868
						CHANNELS 3 Zrotation Yrotation Xrotation
						JOINT LeftForeArm
						{
							OFFSET 0.259612 -0.012772 -0.027456
							CHANNELS 3 Zrotation Yrotation Xrotation
							JOINT LeftHand
							{
								OFFSET 0.249234 0.008986 -0.001171
								CHANNELS 3 Zrotation Yrotation Xrotation
								End Site
								{
									OFFSET 0.000000 0.000000 0.000000
								}
							}
						}
					}
				}
				JOINT RightShoulder
				{
					OFFSET -0.081759 0.118833 -0.038615
					CHANNELS 3 Zrotation Yrotation Xrotation
					JOINT RightArm
					{
						OFFSET -0.096012 0.032551 -0.009143
						CHANNELS 3 Zrotation Yrotation Xrotation
						JOINT RightForeArm
						{
							OFFSET -0.253742 -0.013329 -0.021401
							CHANNELS 3 Zrotation Yrotation Xrotation
							JOINT RightHand
							{
								OFFSET -0.255298 0.007772 -0.005559
								CHANNELS 3 Zrotation Yrotation Xrotation
								End Site
								{
									OFFSET 0.000000 0.000000 0.000000
								}
							}
						}
					}
				}
			}
		}
	}
}
MOTION
Frames: 10
Frame Time: 0.050000
0.009656 0.952211 -0.045737 0.337801 -4.509813 11.462056 3.972374 -0.645093 -9.574042 0.279555 0.084546 -3.218801 3.327539 10.652681 19.345231 0.000000 0.000000 0.000000 -3.295384 0.949249 -10.348418 -7.324471 -0.158855 -8.489384 0.713477 -7.573135 21.914735 0.000000 0.000000 0.000000 3.082460 0.044505 -2.646251 0.258727 -0.039977 -4.021261 -7.044091 3.954310 -0.628630 11.491559 -6.363910 -10.927342 0.000000 0.000000 0.000000 -13.818152 -3.613976 -0.311957 -50.116904 -17.188641 1.802817 -111.055237 -74.650777 98.666866 0.000000 0.000000 0.000000 16.685070 -5.048968 -3.621359 73.693101 18.989722 6.651184 -174.472407 63.970382 -162.672511 0.000000 0.000000 0.000000 
0.009083 0.952915 -0.045998 0.250014 -4.973553 11.614953 4.216916 -0.617075 -9.362166 0.006942 0.126979 -3.763122 3.498692 10.877156 19.776638 0.000000 0.000000 0.000000 -2.839361 1.000717 -10.763649 -7.924454 -0.120480 -8.241548 1.009535 -7.263956 22.044469 0.000000 0.000000 0.000000 3.260153 0.046413 -2.725411 0.710922 -0.236460 -3.862414 -7.426029 3.879453 -1.046583 11.604839 -6.554496 -10.385355 0.000000 0.000000 0.000000 -12.578054 -3.485315 -0.206209 -49.409745 -19.416745 2.705931 -130.144484 -75.915248 121.477049 0.000000 0.000000 0.000000 15.920639 -4.369897 -3.234490 72.324265 21.952014 8.529242 -175.279463 58.940382 -162.636594 0.000000 0.000000 0.000000 
0.008478 0.953589 -0.046112 -0.015477 -5.231276 11.703203 4.140513 -0.615045 -9.307677 0.672369 0.078491 -3.901315 3.622748 11.041274 20.028537 0.000000 0.000000 0.000000 -2.407811 1.023049 -10.835486 -8.098795 -0.128986 -8.357694 1.229851 -7.058849 22.284368 0.000000 0.000000 0.000000 3.429539 0.028295 -2.525242 1.027832 -0.357504 -4.478523 -7.558784 3.658180 -1.095815 11.502353 -6.649258 -9.734578 0.000000 0.000000 0.000000 -11.503675 -4.436190 0.390640 -49.046614 -21.908005 3.709393 -150.721050 -77.629454 147.494923 0.000000 0.000000 0.000000 14.702016 -3.463652 -2.708763 71.933260 24.445990 10.183894 -175.689312 54.476890 -162.119090 0.000000 0.000000 0.000000 
0.008097 0.953708 -0.046266 -0.207911 -5.091320 11.547722 4.191624 -0.587802 -8.800002 1.010609 0.079174 -4.506871 3.523092 10.930202 20.093665 0.000000 0.000000 0.000000 -2.025403 1.013610 -10.613972 -8.322504 -0.125541 -8.388998 1.209305 -7.090752 22.351683 0.000000 0.000000 0.000000 3.486023 0.004712 -2.204395 1.572078 -0.590920 -4.169278 -7.732124 3.005272 -2.106238 11.202736 -6.586995 -8.976783 0.000000 0.000000 0.000000 -10.639582 -5.002607 0.762709 -50.085383 -24.092312 4.857332 -167.024013 -78.680278 167.843250 0.000000 0.000000 0.000000 13.633135 -2.565287 -2.252741 72.604164 25.788959 11.357153 -176.849358 52.381677 -164.390325 0.000000 0.000000 0.000000 
0.007970 0.953840 -0.046874 -0.293022 -5.279935 11.386444 4.320343 -0.562353 -8.472957 0.926751 0.096536 -4.762271 3.598306 11.017562 20.188143 0.000000 0.000000 0.000000 -2.220923 0.996158 -10.476093 -7.787437 -0.145544 -8.451230 1.306211 -6.972477 22.341495 0.000000 0.000000 0.000000 3.635991 -0.032887 -1.731040 1.552690 -0.562837 -4.952358 -7.769073 2.500567 -1.596719 11.199231 -6.589929 -9.163717 0.000000 0.000000 0.000000 -10.453916 -6.111121 1.375679 -50.949585 -26.762249 6.131091 161.384355 -82.996072 -155.183255 0.000000 0.000000 0.000000 13.208102 -1.987859 -2.027177 72.906783 27.090839 12.217606 -175.812753 53.066667 -162.904188 0.000000 0.000000 0.000000 
0.007980 0.953473 -0.048266 -0.238260 -5.069956 11.468747 4.242230 -0.577111 -8.635529 1.019709 0.095215 -4.869426 3.497070 10.900202 20.117522 0.000000 0.000000 0.000000 -2.508666 1.013972 -10.793131 -7.387944 -0.124951 -8.138055 1.129987 -7.149029 22.186023 0.000000 0.000000 0.000000 3.724326 -0.061044 -1.420749 1.631281 -0.586464 -5.147193 -7.988868 1.613876 -1.509652 11.354101 -6.488226 -10.225881 0.000000 0.000000 0.000000 -11.520948 -6.895693 1.784485 -52.849554 -27.635559 6.881190 99.051418 -84.648672 -89.915850 0.000000 0.000000 0.000000 13.331775 -1.073832 -1.720389 74.315742 26.594001 12.080877 -175.253961 56.683546 -163.701953 0.000000 0.000000 0.000000 
0.007993 0.953028 -0.050600 -0.207126 -5.029642 11.637846 4.112641 -0.604352 -9.039983 1.235955 0.075183 -4.766602 3.505974 10.909461 20.051395 0.000000 0.000000 0.000000 -2.749619 1.067304 -11.509526 -7.046372 -0.069168 -7.449860 1.017313 -7.242926 21.939861 0.000000 0.000000 0.000000 3.827923 -0.073297 -1.332224 1.601140 -0.575830 -5.054589 -8.306609 0.989364 -1.297753 11.688158 -6.456440 -11.520696 0.000000 0.000000 0.000000 -12.926166 -7.922908 2.311716 -54.248953 -27.961826 7.289036 37.656279 -78.784928 -27.826255 0.000000 0.000000 0.000000 14.198503 -1.008729 -1.872857 75.375334 25.654932 11.522632 -169.432358 65.018061 -157.431791 0.000000 0.000000 0.000000 
0.008017 0.952576 -0.053350 -0.266872 -5.255778 12.041548 4.394230 -0.609082 -9.450723 0.876172 0.113620 -5.052487 3.643128 11.071566 20.142461 0.000000 0.000000 0.000000 -3.022731 1.137360 -12.415993 -6.499633 -0.050076 -7.013248 1.061389 -7.184437 21.816913 0.000000 0.000000 0.000000 4.000171 -0.090335 -1.250034 1.427086 -0.507627 -4.994211 -8.719925 1.133653 -1.056331 11.982362 -6.434840 -12.508329 0.000000 0.000000 0.000000 -14.314197 -9.399911 2.989256 -57.132669 -27.285594 7.440800 23.100693 -66.510724 -12.544001 0.000000 0.000000 0.000000 15.872206 -0.524401 -1.791940 76.178150 23.749731 10.255971 -152.356425 74.956171 -139.331190 0.000000 0.000000 0.000000 
0.008097 0.952263 -0.055991 -0.156116 -5.478525 12.558109 4.392684 -0.634224 -9.955019 0.685366 0.143051 -5.420304 3.746321 11.206201 20.362523 0.000000 0.000000 0.000000 -3.215722 1.227998 -13.540201 -6.452011 -0.000206 -6.414661 1.099374 -7.144876 21.718543 0.000000 0.000000 0.000000 3.927206 -0.111393 -1.037483 1.293146 -0.455211 -4.904872 -8.757302 1.009802 -0.959560 12.548364 -6.385490 -14.396245 0.000000 0.000000 0.000000 -16.816797 -10.431744 3.563543 -58.735877 -25.110201 6.550723 16.060214 -53.459890 -5.979428 0.000000 0.000000 0.000000 17.686594 -0.180730 -1.859935 76.486971 21.533986 8.619570 -96.152592 80.272097 -82.349366 0.000000 0.000000 0.000000 
0.008233 0.952000 -0.057957 0.007358 -6.225567 12.930806 4.282176 -0.641795 -10.115637 0.473228 0.177349 -5.891618 4.099210 11.617046 20.700079 0.000000 0.000000 0.000000 -3.394214 1.287531 -14.201989 -6.541097 -0.008588 -6.491628 1.461959 -6.742213 21.747225 0.000000 0.000000 0.000000 3.797580 -0.131745 -0.752256 0.927850 -0.309486 -5.039766 -8.413632 1.303818 -0.812158 12.169800 -5.742573 -16.485698 0.000000 0.000000 0.000000 -18.505444 -11.497715 4.220899 -60.402107 -23.452038 5.869990 12.018419 -38.391704 -2.672763 0.000000 0.000000 0.000000 18.778941 1.033793 -1.370299 76.313712 20.399574 7.708489 -49.170660 73.084261 -34.185092 0.000000 0.000000 0.000000 
